PathFileType	4	(X/Y/Z)	H:\MAC\Cortex8\Teaching\Biomec1_N_2\Trimmed_walk2.trc
DataRate	CameraRate	NumFrames	NumMarkers	Units	OrigDataRate	OrigDataStartFrame	OrigNumFrames
150.00	150.00	       12	28	mm	150.00	1	       184
Frame#	Time	R.ASIS			L.ASIS			R.PSIS			L.PSIS			L.Iliac.Crest			R.Iliac.Crest			R.GTR			R.Knee			R.HF			R.TT			R.Ankle			R.Heel			R.MT1			R.MT5			L.GTR			L.Knee			L.HF			L.TT			L.Ankle			L.Heel			L.MT1			L.MT5			R.Knee.Medial			R.Ankle.Medial			R.MT2			L.Knee.Medial			L.Ankle.Medial			L.MT2			V_Mid_ASIS			V_Mid_PSIS			V_Pelvis_Origin			V_R.Hip_JC			V_R.Knee_JC_Static			V_R.TT			V_R.Ankle_JC_Static			V_L.Hip_JC			V_Mid_Hip			V_R.MT2_Static			V_R.Knee.Medial			V_R.Ankle.Medial			V_R.TT			V_L.Knee_JC_Static			V_L.TT			V_L.Ankle_JC_Static			V_L.MT2_Static			V_R.Knee_JC			V_R.Ankle_JC			V_L.Knee_JC			V_L.Ankle_JC			V_R.TT_KJC_Static			V_L.TT_KJC_Static			V_R.TT_KJC			V_L.TT_KJC			V_R.MT2			V_L.MT2			
		X1	Y1	Z1	X2	Y2	Z2	X3	Y3	Z3	X4	Y4	Z4	X5	Y5	Z5	X6	Y6	Z6	X7	Y7	Z7	X8	Y8	Z8	X9	Y9	Z9	X10	Y10	Z10	X11	Y11	Z11	X12	Y12	Z12	X13	Y13	Z13	X14	Y14	Z14	X15	Y15	Z15	X16	Y16	Z16	X17	Y17	Z17	X18	Y18	Z18	X19	Y19	Z19	X20	Y20	Z20	X21	Y21	Z21	X22	Y22	Z22	X23	Y23	Z23	X24	Y24	Z24	X25	Y25	Z25	X26	Y26	Z26	X27	Y27	Z27	X28	Y28	Z28	

1	0.000	516.54236	966.88000	-306.10416	531.67438	981.34631	-560.16077	315.74045	977.08398	-388.89532	312.81592	973.71918	-467.70282	434.09613	1036.32178	-604.96246	443.03604	1017.14392	-270.95670	434.24905	885.62024	-243.06613	338.55429	489.32623	-259.79050	309.56784	432.19937	-254.85144	353.97595	380.67014	-299.80573	31.60373	202.13315	-286.61737	-21.31299	233.84627	-342.46719	94.61413	58.57800	-331.41302	69.88731	71.88602	-245.57802	487.42426	890.44501	-636.98602	589.84106	503.30667	-592.25574	614.63928	444.39801	-589.18109	664.21161	444.30673	-522.74445	609.51331	80.56373	-551.67303	544.30371	50.51409	-492.33569	767.61285	58.84500	-484.01364	744.80756	51.50605	-572.80322	359.31476	453.93762	-387.68295	69.99367	177.60962	-366.65799	91.10587	69.00763	-295.95847	584.31927	491.83475	-451.49405	640.91467	102.96970	-461.64136	766.49017	67.05472	-520.25671																																																																																		
2	0.007	523.92200	967.96594	-308.23773	539.83044	982.78345	-561.77612	323.29425	977.64166	-391.11392	320.88770	974.39514	-469.66016	442.28375	1037.41211	-606.84698	450.09927	1018.22504	-272.95914	442.84262	885.83685	-244.88354	354.68845	487.70508	-258.93646	325.47745	431.36884	-254.05800	368.89307	380.13391	-298.57581	43.18227	209.32716	-287.52512	-7.70701	243.71313	-344.28494	100.52681	62.22211	-331.88364	75.16457	77.14419	-246.36461	494.65643	891.31976	-638.65033	594.46027	503.55115	-592.74023	618.95624	444.49197	-589.35883	667.71484	444.22272	-522.95251	609.90594	80.66536	-551.45007	544.36963	50.63499	-492.35898	767.69446	57.83449	-483.37326	745.03040	51.35967	-572.27911	376.88925	451.20453	-386.67429	80.90663	183.11494	-367.63037	97.35610	72.94382	-296.16809	585.61047	491.72031	-452.45239	641.00195	102.78003	-461.30609	766.70880	66.18866	-519.62793																																																																																		
3	0.013	531.20807	968.92493	-310.12112	547.60663	984.00653	-563.42725	330.56866	978.15283	-393.34290	328.17276	975.56348	-472.19818	450.49966	1038.59619	-608.56061	456.96875	1018.94373	-274.86606	451.00153	885.98071	-246.75024	370.81366	486.12231	-258.00311	341.53119	430.63873	-253.37019	384.27612	380.02048	-297.43069	55.32171	216.27991	-288.43866	6.49521	253.21924	-345.98801	107.61149	65.87587	-332.18320	80.98045	83.48915	-247.18047	501.79578	892.20740	-640.27814	599.17572	503.82666	-593.19849	623.13672	444.62170	-589.53790	671.44452	443.91647	-522.27759	610.24060	80.75304	-551.24823	544.42023	50.75705	-492.39212	767.85931	56.82059	-482.85785	745.23676	51.24249	-571.82788	395.55530	448.62262	-385.25735	92.62741	188.74547	-368.64297	104.89540	76.88196	-296.09930	586.44348	491.23099	-453.99197	641.22186	102.52743	-461.05392	766.92682	65.27229	-519.13348																																																																																		
4	0.020	538.24219	969.77612	-311.72064	555.40649	985.09637	-564.85162	337.63867	978.81207	-395.60764	335.90649	976.31671	-474.11710	458.70126	1039.85034	-610.10016	463.77768	1019.53442	-276.04999	458.73373	886.01154	-248.67877	386.95746	484.80698	-257.10938	357.68765	430.01019	-252.74736	399.79059	379.75433	-296.91629	67.89759	223.56433	-289.85153	21.36058	262.43304	-347.69937	115.94826	69.42964	-332.06381	88.31037	89.07278	-248.29567	508.93369	893.10571	-641.81720	604.00488	504.09943	-593.55530	627.09900	444.65121	-589.72083	674.90790	443.61536	-521.54041	610.52130	80.82606	-551.06897	544.47577	50.88042	-492.41089	767.96191	56.01261	-482.43427	745.39862	51.12432	-571.48267	413.54120	446.79431	-384.10010	104.89867	194.33499	-369.85440	114.31816	79.71064	-295.37305	588.36719	491.34662	-454.16455	641.47699	102.29733	-460.72614	767.09344	64.64764	-518.64502																																																																																		
5	0.027	545.11420	970.81128	-313.07266	563.14301	986.00916	-566.06659	344.50589	979.21619	-397.85052	343.31287	977.24731	-476.33908	466.85333	1041.19067	-611.50909	470.04605	1019.73041	-277.61734	466.09805	885.94543	-250.65518	402.95895	483.87012	-256.32962	374.10001	429.66415	-252.06934	415.55554	379.80811	-296.75168	80.96002	230.45418	-291.01672	37.00847	271.25815	-349.77072	125.23349	72.54327	-331.81497	96.35043	95.63701	-249.26259	516.08832	894.01428	-643.27100	608.69849	504.31073	-593.93140	630.82544	444.49368	-589.92938	678.22198	443.25638	-520.92566	610.75043	80.89351	-550.88910	544.50806	50.98153	-492.42105	768.06335	55.38279	-482.11655	745.71973	50.94670	-571.13190	431.52341	445.67010	-383.17188	117.81542	199.91045	-371.12396	123.65300	81.98575	-294.78860	589.59979	491.36469	-454.49768	641.77759	102.33441	-460.27908	767.23840	64.11570	-518.32220																																																																																		
6	0.033	551.79865	971.69977	-314.16708	570.69476	986.83569	-567.05334	351.29630	979.52893	-400.05127	350.46188	978.16241	-478.47266	474.85187	1042.58875	-612.82294	476.21149	1019.73706	-279.05801	473.12195	885.86688	-252.59471	418.86826	483.46414	-255.68317	390.46283	429.71497	-251.66171	431.51599	380.13550	-296.74487	94.35389	237.01033	-292.50705	53.19746	279.29852	-352.12592	135.39484	74.81152	-331.33752	105.55255	102.82242	-250.42241	523.25177	894.95868	-644.63379	613.18927	504.45920	-594.38361	634.29285	444.27490	-590.16150	681.35144	442.86169	-520.50598	610.90588	80.94488	-550.74878	544.54669	51.06556	-492.43143	768.06458	54.90424	-481.83075	745.80719	50.87858	-570.90259	448.99292	445.10208	-382.82751	131.34885	205.37776	-372.41919	133.85368	83.65325	-294.12000	592.45605	491.70486	-454.77631	641.82349	102.01516	-460.36420	767.40265	63.57795	-518.00439																																																																																		
7	0.040	558.21698	972.74762	-315.07938	578.03857	987.48535	-568.16742	357.97186	979.75708	-402.16635	357.55811	979.04889	-480.58603	482.75375	1043.94434	-614.11053	482.09351	1019.62024	-280.34570	479.99377	885.75415	-254.45642	434.67233	483.60300	-255.15913	406.86337	430.14719	-251.32863	447.75446	380.58917	-296.93655	107.94897	243.14197	-294.17133	69.22489	286.31995	-354.98343	145.91573	77.59445	-331.22522	115.90760	109.43407	-251.30057	530.29694	895.87482	-645.93011	617.50854	504.37756	-594.75458	637.50562	443.94907	-590.60083	684.26331	442.38611	-520.40881	611.02673	80.97980	-550.62952	544.56036	51.13549	-492.43933	768.09595	54.59927	-481.70132	745.89581	50.79089	-570.76862	465.90619	445.47696	-382.84900	145.06293	210.43655	-373.70386	144.12715	86.98648	-294.06384	595.27826	491.88776	-455.40332	641.97736	101.84349	-460.19159	767.47992	63.24953	-517.87860																																																																																		
8	0.047	564.50592	973.82654	-315.72241	585.38959	988.14594	-568.93073	364.54605	979.94617	-404.20932	364.43161	979.95929	-482.58386	490.47763	1045.25317	-615.32874	487.85010	1019.45465	-281.53433	486.75421	885.63892	-256.15637	450.48621	484.23505	-254.92857	423.18463	430.96051	-251.19919	464.19748	381.37402	-297.49075	121.88589	248.88187	-295.94241	84.22557	292.26566	-357.77921	157.40585	81.84317	-332.12006	127.56117	115.44276	-251.88156	537.37195	896.67908	-647.20087	621.52985	504.30969	-595.34674	640.34705	443.60056	-591.12738	687.03369	441.85159	-520.67700	611.11346	81.01810	-550.54871	544.58917	51.19302	-492.44421	768.15192	54.28354	-481.63641	746.00659	50.62671	-570.68341	482.20056	446.73013	-383.05325	158.83875	215.10571	-375.03088	155.94188	93.24699	-294.93265	598.41803	492.03671	-456.03421	642.07886	101.79715	-460.11029	767.57324	62.96453	-517.83398																																																																																		
9	0.053	570.64172	975.03284	-316.27194	592.83771	988.81830	-569.30902	370.90268	980.01221	-406.12289	371.28552	980.87982	-484.44214	498.03156	1046.37610	-616.51636	493.40390	1019.33704	-282.56168	493.45074	885.53479	-257.73685	466.16617	485.49881	-254.91080	439.44223	432.03790	-251.17870	480.47659	382.34918	-298.03580	136.05209	254.71495	-297.90103	98.16361	297.48691	-360.53418	170.96716	87.10721	-333.04050	140.76869	121.12896	-252.35081	544.30261	897.39075	-648.34711	625.44891	504.08081	-595.60529	643.29657	443.13440	-591.71655	689.64075	441.18118	-521.29413	611.20673	81.04311	-550.48547	544.62311	51.24007	-492.45093	768.20056	54.06042	-481.62173	746.10315	50.49467	-570.66095	498.18683	448.64236	-383.19116	172.87169	219.74141	-376.63864	170.20821	100.82513	-296.28391	603.15344	491.94296	-456.68460	642.20984	101.75590	-460.05219	767.73474	62.65651	-517.90399																																																																																		
10	0.060	576.72980	976.22528	-316.74622	599.92590	989.42572	-569.91589	377.18558	980.10187	-407.92456	378.13919	981.81140	-486.14511	505.36151	1047.35425	-617.64600	498.91714	1019.33655	-283.52158	500.09595	885.47272	-259.21439	481.79034	487.20648	-255.15669	455.68863	433.44421	-251.21124	496.76825	383.66086	-298.80423	150.09097	260.44540	-300.37662	111.88100	302.02304	-363.18930	186.24016	92.82481	-333.24292	155.66370	126.69794	-252.88046	551.12787	897.98041	-649.39349	628.82178	503.97458	-596.33533	645.87592	442.72046	-592.46808	692.12292	440.54428	-522.18713	611.35358	81.20304	-550.39227	544.66168	51.26956	-492.43930	768.26202	53.88622	-481.64987	746.17810	50.36343	-570.67584	513.56744	450.99387	-383.49777	187.39445	224.93671	-378.61966	184.56104	105.26342	-295.82327	604.01257	492.58066	-457.68262	642.55933	101.67013	-460.04855	767.82965	62.32619	-518.06720																																																																																		
11	0.067	582.95306	977.39032	-317.20081	606.94733	990.09534	-570.57837	383.49500	980.28772	-409.62247	384.76074	982.80084	-487.68884	512.46777	1048.23499	-618.75165	504.58432	1019.47406	-284.50012	506.69839	885.44598	-260.59161	497.30374	489.29886	-255.50195	471.82782	435.10934	-251.55070	513.01489	385.26459	-299.53409	164.49207	265.57880	-302.77637	125.78466	305.93631	-365.61154	202.34428	98.35390	-333.66837	171.89249	132.05406	-253.58984	557.69678	898.52954	-650.33405	631.75580	503.88333	-597.13641	648.25092	442.37976	-593.18109	694.45465	439.93698	-523.30640	611.44806	81.21901	-550.35730	544.68762	51.30361	-492.43698	768.41290	53.74560	-481.70837	746.25458	50.23072	-570.70581	528.83203	453.62592	-383.78198	202.31242	229.78479	-380.62524	200.92787	110.88003	-296.50620	607.37103	492.76245	-458.60562	642.68463	101.67376	-460.03659	767.92645	62.08627	-518.14606																																																																																		
12	0.073	589.20575	978.62927	-317.78101	613.65479	990.73181	-571.26038	389.94620	980.63141	-411.06641	391.37494	983.79999	-489.07956	519.43610	1049.04871	-619.84973	510.18634	1019.81042	-285.47427	513.31641	885.47980	-261.87234	512.77264	491.56696	-255.94254	487.77307	437.05023	-251.94617	529.37543	386.67734	-300.45801	179.59097	269.74756	-304.76880	139.97520	309.22617	-367.78476	219.95064	104.00163	-333.74722	188.97951	137.02644	-254.58514	564.11255	899.03387	-651.24384	634.31482	503.81705	-598.00946	650.37506	442.05640	-593.94336	696.65985	439.17239	-524.44171	611.52490	81.22908	-550.34113	544.70435	51.34452	-492.47064	768.46307	53.62873	-481.75693	746.31885	50.10086	-570.72540	544.06323	456.43344	-384.02908	217.73505	233.83955	-382.49921	218.83484	117.27354	-298.15802	610.54755	492.91238	-459.56000	642.79395	101.68893	-460.06360	768.10071	61.76632	-518.15948																																																																																		
